<?xml version="1.0" encoding="iso-8859-1"?>
<!-- Generator: Adobe Illustrator 18.1.1, SVG Export Plug-In . SVG Version: 6.00 Build 0)  -->
<svg version="1.1" id="Capa_1" xmlns="http://www.w3.org/2000/svg" xmlns:xlink="http://www.w3.org/1999/xlink" x="0px" y="0px"
	 viewBox="0 0 382.91 382.91" style="enable-background:new 0 0 382.91 382.91;" xml:space="preserve">
<g>
	<g>
		<path style="fill:#010002;" d="M191.419,138.47c-7.411,0-14.649,1.539-21.499,4.589c-26.672,11.868-38.725,43.242-26.857,69.926
			c8.491,19.106,27.501,31.451,48.427,31.451c7.411,0,14.643-1.539,21.499-4.583c26.684-11.874,38.731-43.248,26.857-69.926
			C231.35,150.81,212.339,138.47,191.419,138.47z"/>
		<path style="fill:#010002;" d="M380.08,158.668c-0.764-4.463-3.389-8.449-7.208-10.931c-3.789-2.458-8.473-3.246-12.906-2.148
			c-5.197,1.313-10.615,1.002-15.472-0.865c-13.229-5.084-19.858-19.989-14.78-33.224c1.909-4.976,5.382-9.207,10.036-12.232
			c3.813-2.47,6.438-6.45,7.214-10.913c0.776-4.463-0.352-9.094-3.091-12.698c-11.832-15.615-25.95-29.262-41.959-40.563
			c-3.664-2.572-8.097-3.58-12.769-2.637c-4.421,0.925-8.306,3.664-10.657,7.536c-2.727,4.505-6.701,8.008-11.492,10.138
			c-3.335,1.48-6.838,2.232-10.43,2.232c-10.15,0-19.38-5.991-23.509-15.269c-2.19-4.923-2.757-10.347-1.641-15.687
			c0.931-4.421-0.024-9.076-2.619-12.799c-2.602-3.688-6.659-6.164-11.134-6.784c-19.279-2.685-39.274-2.387-58.272,0.859
			c-4.457,0.764-8.437,3.365-10.925,7.148c-2.488,3.789-3.3,8.485-2.214,12.882c1.259,5.143,0.943,10.442-0.931,15.311
			c-3.795,9.875-13.437,16.51-24.005,16.51c-3.121,0-6.223-0.585-9.213-1.73c-4.994-1.921-9.231-5.394-12.25-10.06
			c-2.464-3.801-6.432-6.438-10.884-7.22c-4.463-0.782-9.099,0.346-12.686,3.031C60.59,50.363,46.878,64.451,35.523,80.442
			c-2.631,3.711-3.61,8.395-2.673,12.841c0.931,4.457,3.711,8.348,7.614,10.687c4.559,2.727,8.103,6.719,10.257,11.564
			c2.792,6.271,2.971,13.258,0.513,19.661c-2.47,6.414-7.286,11.474-13.551,14.267c-4.994,2.208-10.627,2.751-16.003,1.569
			c-4.433-0.991-9.129-0.072-12.871,2.512c-3.729,2.578-6.241,6.635-6.898,11.158c-2.781,19.631-2.524,39.352,0.746,58.601
			c0.758,4.505,3.401,8.527,7.262,11.021c3.801,2.452,8.503,3.246,13.02,2.082c5.245-1.366,10.74-1.092,15.681,0.8
			c6.408,2.458,11.474,7.274,14.273,13.545c2.792,6.271,2.971,13.258,0.507,19.667c-1.969,5.114-5.579,9.422-10.454,12.465
			c-3.884,2.434-6.587,6.396-7.411,10.854c-0.847,4.499,0.245,9.183,3.001,12.853c11.904,15.842,26.099,29.637,42.18,40.998
			c3.771,2.673,8.688,3.61,12.954,2.625c4.487-0.973,8.377-3.819,10.681-7.799c2.739-4.744,6.814-8.413,11.773-10.621
			c3.318-1.474,6.826-2.226,10.424-2.226c10.15,0,19.38,5.997,23.509,15.263c2.279,5.137,2.798,10.776,1.51,16.296
			c-1.05,4.481-0.161,9.219,2.434,12.984c2.596,3.789,6.701,6.325,11.248,6.951c8.736,1.223,17.62,1.844,26.403,1.844
			c10.824,0,21.737-0.943,32.424-2.798c4.523-0.788,8.533-3.455,11.003-7.327c2.464-3.873,3.198-8.634,2.005-13.05
			c-1.444-5.358-1.193-10.83,0.728-15.83c3.801-9.875,13.455-16.51,24.023-16.51c3.109,0,6.212,0.579,9.183,1.712
			c5.108,1.975,9.422,5.591,12.465,10.448c2.428,3.878,6.408,6.581,10.913,7.411c4.511,0.835,9.225-0.316,12.835-3.055
			c15.758-11.934,29.482-26.153,40.825-42.281c2.607-3.741,3.55-8.431,2.584-12.882c-0.967-4.457-3.783-8.33-7.733-10.645
			c-4.672-2.733-8.3-6.772-10.484-11.683c-5.758-12.954,0.09-28.182,13.026-33.94c4.988-2.208,10.526-2.787,16.009-1.563
			c1.146,0.251,2.327,0.37,3.503,0.37c0,0,0,0,0.006,0c3.365,0,6.605-1.008,9.362-2.924c3.741-2.602,6.247-6.689,6.868-11.23
			C383.809,197.62,383.433,177.947,380.08,158.668z M217.829,250.755c-8.383,3.717-17.25,5.603-26.338,5.603
			c-25.64,0-48.928-15.126-59.335-38.534c-14.535-32.692,0.233-71.131,32.919-85.678c8.389-3.729,17.256-5.615,26.35-5.615
			c25.628,0,48.916,15.126,59.329,38.534C265.295,197.769,250.533,236.202,217.829,250.755z"/>
	</g>
</g>
<g>
</g>
<g>
</g>
<g>
</g>
<g>
</g>
<g>
</g>
<g>
</g>
<g>
</g>
<g>
</g>
<g>
</g>
<g>
</g>
<g>
</g>
<g>
</g>
<g>
</g>
<g>
</g>
<g>
</g>
</svg>
